<?xml version="1.0" encoding="UTF-8"?>
<svg width="18px" height="18px" viewBox="0 0 18 18" version="1.1" xmlns="http://www.w3.org/2000/svg" xmlns:xlink="http://www.w3.org/1999/xlink">
    <!-- Generator: Sketch 52.4 (67378) - http://www.bohemiancoding.com/sketch -->
    <title>instagram</title>
    <desc>Created with Sketch.</desc>
    <g id="Page-1" stroke="none" stroke-width="1" fill="none" fill-rule="evenodd">
        <g id="Perfects.Engineering-Dark-Mode" transform="translate(-1342.000000, -77.000000)">
            <g id="Group-2" transform="translate(987.000000, 71.000000)">
                <g id="Social-Icons" transform="translate(49.000000, 0.000000)">
                    <g id="instagram" transform="translate(306.000000, 6.000000)">
                        <g transform="translate(0.857143, 0.857143)">
                            <rect id="Rectangle" fill="#FFFFFF" x="0" y="0" width="16.2857143" height="16.2857143" rx="3"></rect>
                            <path d="M11.4,7.62985714 C11.606114,9.01981973 10.8976068,10.3852734 9.64246731,11.0170201 C8.38732787,11.6487669 6.86853955,11.4043732 5.87494029,10.410774 C4.88134104,9.41717474 4.63694742,7.89838641 5.26869416,6.64324697 C5.90044089,5.38810753 7.26589456,4.6796003 8.65585714,4.88571429 C10.0751382,5.09617584 11.1895385,6.21057606 11.4,7.62985714 Z" id="Path" stroke="#0C1C21" stroke-width="2" stroke-linecap="round" stroke-linejoin="round"></path>
                            <path d="M11.4,7.62985714 C11.606114,9.01981973 10.8976068,10.3852734 9.64246731,11.0170201 C8.38732787,11.6487669 6.86853955,11.4043732 5.87494029,10.410774 C4.88134104,9.41717474 4.63694742,7.89838641 5.26869416,6.64324697 C5.90044089,5.38810753 7.26589456,4.6796003 8.65585714,4.88571429 C10.0751382,5.09617584 11.1895385,6.21057606 11.4,7.62985714 Z" id="Path-Copy" stroke="#0C1C21" stroke-width="2" stroke-linecap="round" stroke-linejoin="round"></path>
                            <circle id="Oval" fill="#000000" cx="13.1428571" cy="3.14285714" r="1"></circle>
                        </g>
                    </g>
                </g>
            </g>
        </g>
    </g>
</svg>