<?xml version="1.0" encoding="UTF-8"?>
<svg width="19px" height="19px" viewBox="0 0 19 19" version="1.1" xmlns="http://www.w3.org/2000/svg" xmlns:xlink="http://www.w3.org/1999/xlink">
    <!-- Generator: Sketch 52.4 (67378) - http://www.bohemiancoding.com/sketch -->
    <title>linkedin</title>
    <desc>Created with Sketch.</desc>
    <g id="Page-1" stroke="none" stroke-width="1" fill="none" fill-rule="evenodd">
        <g id="Perfects.Engineering-Dark-Mode" transform="translate(-1162.000000, -77.000000)" fill="#FFFFFF" fill-rule="nonzero">
            <g id="Group-2" transform="translate(987.000000, 71.000000)">
                <g id="Social-Icons" transform="translate(49.000000, 0.000000)">
                    <g id="linkedin" transform="translate(126.000000, 6.000000)">
                        <g transform="translate(0.000000, -0.000000)" id="LinkedIn">
                            <path d="M18.8371492,11.5140714 L18.8371492,18.4782857 L14.7997382,18.4782857 L14.7997382,11.9804925 C14.7997382,10.3481939 14.2157702,9.23421391 12.7543613,9.23421391 C11.6387609,9.23421391 10.9748663,9.98495478 10.6827947,10.7111702 C10.5762843,10.9707894 10.5488684,11.3321453 10.5488684,11.6955596 L10.5488684,18.4782857 L6.51009971,18.4782857 C6.51009971,18.4782857 6.5644936,7.47315679 6.51009971,6.33294336 L10.5484742,6.33294336 L10.5484742,8.05449702 C10.5402845,8.06737287 10.5296422,8.08125602 10.5219342,8.09373771 L10.5484742,8.09373771 L10.5484742,8.05449702 C11.0850118,7.22812148 12.0432115,6.04761628 14.1879602,6.04761628 C16.8451589,6.04757248 18.8371492,7.78349104 18.8371492,11.5140714 Z M2.28537574,0.478285714 C0.90371823,0.478285714 0,1.38454408 0,2.5763047 C0,3.74209465 0.877572372,4.67585653 2.23177016,4.67585653 L2.25874813,4.67585653 C3.66716464,4.67585653 4.54307278,3.74226983 4.54307278,2.5763047 C4.51653277,1.38454408 3.66716464,0.478285714 2.28537574,0.478285714 Z M0.239867446,18.4782857 L4.27710327,18.4782857 L4.27710327,6.33294336 L0.239867446,6.33294336 L0.239867446,18.4782857 Z"></path>
                        </g>
                    </g>
                </g>
            </g>
        </g>
    </g>
</svg>