<?xml version="1.0" encoding="UTF-8"?>
<svg width="19px" height="14px" viewBox="0 0 19 14" version="1.1" xmlns="http://www.w3.org/2000/svg" xmlns:xlink="http://www.w3.org/1999/xlink">
    <!-- Generator: Sketch 52.4 (67378) - http://www.bohemiancoding.com/sketch -->
    <title>medium</title>
    <desc>Created with Sketch.</desc>
    <g id="Page-1" stroke="none" stroke-width="1" fill="none" fill-rule="evenodd">
        <g id="Perfects.Engineering-Dark-Mode" transform="translate(-1222.000000, -79.000000)" fill="#FFFFFF">
            <g id="Group-2" transform="translate(987.000000, 71.000000)">
                <g id="Social-Icons" transform="translate(49.000000, 0.000000)">
                    <g id="medium" transform="translate(186.000000, 7.000000)">
                        <g transform="translate(0.000000, 0.714286)" id="Path">
                            <path d="M18.2878308,2.39136725 L17.2787233,2.39136725 C17.0159675,2.39136725 16.3284258,2.67680043 16.3284258,2.91978903 L16.3284258,11.7438394 C16.3284258,11.9874327 17.0159675,12.1871452 17.2787233,12.1871452 L18.2878308,12.1871452 L18.2878308,14.1462857 L11.7564303,14.1462857 L11.7564303,12.1871452 L13.0630279,12.1871452 L13.0630279,3.04409911 L12.8356489,3.04409911 L9.69157522,14.1462479 L7.25730491,14.1462479 L4.15389939,3.04409911 L3.91884789,3.04409911 L3.91884789,12.1871074 L5.22487855,12.1871074 L5.22487855,14.1462479 L0,14.1462857 L0,12.1871074 L0.724657093,12.1871074 C1.00914538,12.1871074 1.30606846,11.9874327 1.30606846,11.7438016 L1.30606846,2.91978903 C1.30606846,2.67676264 1.00918318,2.39136725 0.724657093,2.39136725 L0,2.39136725 L0,0.432 L6.77128991,0.432 L8.98218759,8.2686375 L9.04167803,8.2686375 L11.2743838,0.432 L18.2878308,0.432 L18.2878308,2.39136725 Z"></path>
                        </g>
                    </g>
                </g>
            </g>
        </g>
    </g>
</svg>