<?xml version="1.0" encoding="UTF-8"?>
<svg width="18px" height="18px" viewBox="0 0 18 18" version="1.1" xmlns="http://www.w3.org/2000/svg" xmlns:xlink="http://www.w3.org/1999/xlink">
    <!-- Generator: Sketch 52.4 (67378) - http://www.bohemiancoding.com/sketch -->
    <title>instagram</title>
    <desc>Created with Sketch.</desc>
    <g id="Page-1" stroke="none" stroke-width="1" fill="none" fill-rule="evenodd">
        <g id="Perfects.Engineering-Light-Mode" transform="translate(-1342.000000, -78.000000)">
            <g id="Social-Icons-Copy" transform="translate(1036.000000, 72.000000)">
                <g id="instagram" transform="translate(306.857143, 6.857143)">
                    <rect id="Rectangle" fill="#021318" x="0" y="0" width="16.2857143" height="16.2857143" rx="5"></rect>
                    <path d="M11.4,7.62985714 C11.606114,9.01981973 10.8976068,10.3852734 9.64246731,11.0170201 C8.38732787,11.6487669 6.86853955,11.4043732 5.87494029,10.410774 C4.88134104,9.41717474 4.63694742,7.89838641 5.26869416,6.64324697 C5.90044089,5.38810753 7.26589456,4.6796003 8.65585714,4.88571429 C10.0751382,5.09617584 11.1895385,6.21057606 11.4,7.62985714 Z" id="Path" fill="#FFFFFF"></path>
                    <path d="M13.5063003,3.64619627 C13.5542186,3.96934097 13.3895017,4.28678772 13.0977013,4.43365902 C12.8059008,4.58053032 12.4528062,4.5237126 12.2218098,4.29271622 C11.9908134,4.06171983 11.9339957,3.70862515 12.080867,3.41682474 C12.2277383,3.12502432 12.545185,2.9603074 12.8683297,3.0082257 C13.1982905,3.05715474 13.4573713,3.31623547 13.5063003,3.64619627 Z" id="Path-Copy" fill="#FFFFFF"></path>
                </g>
            </g>
        </g>
    </g>
</svg>