<?xml version="1.0" encoding="UTF-8"?>
<svg width="19px" height="14px" viewBox="0 0 19 14" version="1.1" xmlns="http://www.w3.org/2000/svg" xmlns:xlink="http://www.w3.org/1999/xlink">
    <!-- Generator: Sketch 52.4 (67378) - http://www.bohemiancoding.com/sketch -->
    <title>youtube</title>
    <desc>Created with Sketch.</desc>
    <g id="Page-1" stroke="none" stroke-width="1" fill="none" fill-rule="evenodd">
        <g id="Perfects.Engineering-Light-Mode" transform="translate(-1102.000000, -80.000000)" fill="#011216" fill-rule="nonzero">
            <g id="Social-Icons-Copy" transform="translate(1036.000000, 72.000000)">
                <g id="youtube" transform="translate(66.000000, 8.571429)">
                    <path d="M17.7134423,2.15538545 C17.4927709,1.1967857 16.7086988,0.489557898 15.7647981,0.384059827 C13.5296159,0.134548518 11.2672683,0.133246072 9.0153404,0.134548518 C6.76304033,0.133246072 4.50032069,0.134548518 2.26513847,0.384059827 C1.32179593,0.489557898 0.538282042,1.1967857 0.317610593,2.15538545 C0.00353520871,3.52053421 0,5.01071771 0,6.41624227 C0,7.82176683 0,9.31176427 0.314075384,10.676727 C0.534374706,11.6351406 1.31807466,12.3423684 2.26197538,12.4480526 C4.49697154,12.69775 6.75950512,12.6990524 9.01180519,12.69775 C11.2644774,12.6990524 13.5264528,12.69775 15.7612629,12.4480526 C16.7046054,12.3425545 17.4888636,11.6353267 17.709535,10.676727 C18.0237964,9.3115782 18.0249128,7.82158076 18.0249128,6.41624227 C18.0249128,5.01071771 18.0275177,3.52053421 17.7134423,2.15538545 Z M6.68638212,9.2138948 C6.68638212,7.22003709 6.68638212,5.2470185 6.68638212,3.25297473 C8.59669726,4.24971752 10.4943601,5.23976202 12.4167694,6.24264491 C10.5003141,7.23659675 8.60172098,8.22068722 6.68638212,9.2138948 Z" id="Shape"></path>
                </g>
            </g>
        </g>
    </g>
</svg>